<?xml version="1.0" encoding="UTF-8"?>
<svg width="800px" height="600px" viewBox="0 0 800 600" version="1.1" xmlns="http://www.w3.org/2000/svg">
    <g fill="none" fill-rule="evenodd">
        <!-- Background Elements -->
        <circle fill="#E1F5FE" cx="400" cy="300" r="250"/>
        <path d="M300,200 C400,150 500,150 600,200" stroke="#B3E5FC" stroke-width="4"/>
        
        <!-- People Figures -->
        <g transform="translate(250, 200)">
            <!-- Person 1 -->
            <circle fill="#0061f2" cx="100" cy="100" r="40"/>
            <circle fill="#FFFFFF" cx="100" cy="80" r="15"/>
            <rect fill="#0061f2" x="85" y="140" width="30" height="60" rx="10"/>
            
            <!-- Person 2 -->
            <circle fill="#00a6f2" cx="200" cy="100" r="40"/>
            <circle fill="#FFFFFF" cx="200" cy="80" r="15"/>
            <rect fill="#00a6f2" x="185" y="140" width="30" height="60" rx="10"/>
            
            <!-- Person 3 -->
            <circle fill="#00f2ff" cx="300" cy="100" r="40"/>
            <circle fill="#FFFFFF" cx="300" cy="80" r="15"/>
            <rect fill="#00f2ff" x="285" y="140" width="30" height="60" rx="10"/>
            
            <!-- Connection Lines -->
            <path d="M140,100 L160,100" stroke="#B3E5FC" stroke-width="4"/>
            <path d="M240,100 L260,100" stroke="#B3E5FC" stroke-width="4"/>
        </g>
        
        <!-- Floating Elements -->
        <g transform="translate(200, 150)">
            <circle fill="#E1F5FE" cx="50" cy="50" r="10"/>
            <circle fill="#E1F5FE" cx="350" cy="50" r="10"/>
            <circle fill="#E1F5FE" cx="200" cy="250" r="10"/>
        </g>
    </g>
</svg> 